<?xml version="1.0" standalone="no"?>
<svg xmlns:xlink="http://www.w3.org/1999/xlink" xmlns="http://www.w3.org/2000/svg" width="343.18527444282364" height="261.35625" viewBox="0 0 350 266.5460738328973" class="css-1j8o68f"><defs id="SvgjsDefs6416"><linearGradient id="SvgjsLinearGradient6423"><stop id="SvgjsStop6424" stop-color="#ef4136" offset="0"/><stop id="SvgjsStop6425" stop-color="#fbb040" offset="1"/></linearGradient><linearGradient id="SvgjsLinearGradient6426"><stop id="SvgjsStop6427" stop-color="#ef4136" offset="0"/><stop id="SvgjsStop6428" stop-color="#fbb040" offset="1"/></linearGradient><linearGradient id="SvgjsLinearGradient6429"><stop id="SvgjsStop6430" stop-color="#ef4136" offset="0"/><stop id="SvgjsStop6431" stop-color="#fbb040" offset="1"/></linearGradient></defs><g id="SvgjsG6417" featurekey="symbolFeature-0" transform="matrix(3.0434782608695654,0,0,3.0434782608695654,101.95652173913044,-3.0434782608695654)" fill="url(#SvgjsLinearGradient6423)"><g xmlns="http://www.w3.org/2000/svg"><path fill="none" stroke="url(#SvgjsLinearGradient6423)" stroke-width="2" stroke-linecap="round" stroke-linejoin="round" stroke-miterlimit="10" d="   M5.357,33.068h27.787c0,0,3.665-0.189,1.309-5.99C31.592,20.035,15.491,12.363,4.867,25.5C4.867,25.5,0.617,31.492,5.357,33.068z"/><path fill="none" stroke="url(#SvgjsLinearGradient6423)" stroke-width="2" stroke-linecap="round" stroke-linejoin="round" stroke-miterlimit="10" d="   M3.296,42.561C3.296,45.002,4.684,47,6.381,47h25.598c1.695,0,3.084-1.998,3.084-4.439v-0.5H3.296V42.561z"/><path fill="none" stroke="url(#SvgjsLinearGradient6423)" stroke-width="2" stroke-linecap="round" stroke-linejoin="round" stroke-miterlimit="10" d="   M1,35.895c2.348,2.521,4.931,3.131,7.626,1.254c0.409-0.283,0.751-0.711,1.167-0.988c0.566-0.375,1.203-0.346,1.838-0.336   c1.44,0.02,2.742,0.691,3.982,1.561c1.277,0.895,2.688,1.43,4.143,1.367c1.678-0.074,3.297-1.598,4.861-2.336   c1.029-0.484,2.058-0.523,3.033,0.152c0.9,0.623,1.811,1.439,2.779,1.871c1.396,0.621,2.982,0.121,4.189-0.904   c0.964-0.818,1.483-1.674,2.703-1.711"/><polyline fill="none" stroke="url(#SvgjsLinearGradient6423)" stroke-width="2" stroke-linecap="round" stroke-linejoin="round" stroke-miterlimit="10" points="   24.035,19.082 23.508,13.5 43.687,13.5 40.527,46.947 26.666,46.947  "/><path fill="none" stroke="url(#SvgjsLinearGradient6423)" stroke-width="2" stroke-linecap="round" stroke-linejoin="round" stroke-miterlimit="10" d="   M37.322,1c0,0-4.103,3.686-4.208,12.5"/><line fill="none" stroke="url(#SvgjsLinearGradient6423)" stroke-width="2" stroke-linecap="round" stroke-linejoin="round" stroke-miterlimit="10" x1="20.193" y1="13.5" x2="47" y2="13.5"/><ellipse cx="11.37" cy="27.654" rx="1.108" ry="1.064"/><ellipse cx="26.151" cy="27.654" rx="1.108" ry="1.064"/><ellipse cx="19.162" cy="23.414" rx="1.35" ry="1.297"/></g></g><g id="SvgjsG6418" featurekey="nameFeature-0" transform="matrix(1.983623106075183,0,0,1.983623106075183,0.000003783460819387785,143.25820857497396)" fill="url(#SvgjsLinearGradient6426)"><path d="M1.08 31.84 c0.36 -1.84 0.76 -3.8 1.2 -5.68 c0.4 -1.84 0.8 -3.56 1.08 -4.84 c0.76 -3.48 1.64 -7.96 1.96 -10.24 c0.12 -0.84 0.88 -1.4 1.68 -1.28 l1.28 0.2 c0.68 -0.16 1.56 -0.28 2.52 -0.36 c1.2 -0.12 2.48 -0.16 3.6 -0.2 c1.32 0 3.08 -0.04 4.48 -0.08 c0.36 0 0.68 0 0.96 -0.04 c0.32 0 0.56 0 0.76 -0.04 c0.44 0 0.68 -0.04 0.68 -0.04 s0.24 0.76 0.16 1.52 c-0.04 0.8 -0.12 1 -0.08 1.52 c0 0.52 -0.04 0.84 -0.04 0.84 c-0.68 -0.04 -1.36 -0.08 -2.04 -0.16 l0 0.28 c0.6 0.12 1.24 0.24 1.88 0.32 c0 0 0.04 0.96 -0.08 1.76 l-0.24 0 c-0.16 -0.04 -0.4 -0.04 -0.68 -0.08 c-0.6 -0.04 -1.36 -0.12 -2.2 -0.2 c-1.72 -0.16 -3.64 -0.32 -4.8 -0.32 c-0.8 0 -1.64 0.04 -2.44 0.16 c-0.32 0 -0.6 0.04 -0.84 0.08 c-0.16 0.88 -0.36 1.84 -0.52 2.84 c-0.28 1.4 -0.6 2.84 -0.88 4.32 c0.24 0 0.52 0 0.76 -0.04 c0.92 0 1.92 -0.04 2.84 -0.08 c1.08 -0.08 2.56 -0.2 3.76 -0.32 c1.24 -0.12 2.2 -0.2 2.2 -0.2 s0.16 0.76 0.12 1.52 c-0.04 0.8 -0.12 1 -0.08 1.52 c0 0.52 -0.04 0.84 -0.04 0.84 c-0.56 -0.04 -1.12 -0.08 -1.72 -0.12 l0 0.32 c0.56 0.08 1.08 0.16 1.6 0.24 c0 0 0.04 0.96 -0.04 1.76 c0 0 -1.12 -0.08 -2.56 -0.16 s-3.16 -0.12 -4.24 -0.12 c-1.12 0 -2.56 0.04 -3.6 0 c-0.4 2.32 -0.84 4.92 -1.08 7.12 c-0.08 0.72 -0.16 1.4 -0.24 2.04 c-0.04 0.6 -0.08 1.16 -0.12 1.64 c-0.08 0.92 -0.08 1.48 -0.08 1.48 s-0.2 0.08 -0.48 0.16 c-0.32 0.08 -0.68 0.16 -1.08 0.04 c-0.76 -0.16 -0.92 -0.32 -1.44 -0.32 s-0.84 -0.12 -0.84 -0.12 c0.12 -0.76 0.16 -1.48 0.28 -2.2 l0.16 -1.12 l0.16 -1.12 l-0.28 0 l-0.2 1 l-0.2 1 c-0.04 0.36 -0.12 0.68 -0.16 1.04 l-0.16 1.04 s-0.96 0 -1.72 -0.28 c0 0 0.04 -0.2 0.08 -0.52 c0 -0.2 0.04 -0.4 0.04 -0.64 l0.12 -0.84 c0.08 -0.32 0.12 -0.68 0.16 -1.04 c0.08 -0.36 0.12 -0.76 0.2 -1.16 c0.12 -0.8 0.28 -1.68 0.48 -2.64 z M28.144000000000002 30.36 c-0.8 0.08 -1.72 0.12 -2.56 0.2 c-1.32 2.96 -2.52 6.28 -3.08 8.16 c-0.28 0.88 -1.12 1.4 -1.92 1.16 l-2.12 -0.64 c-0.76 -0.24 -1.16 -1.16 -0.88 -2.08 c0.48 -1.44 1.24 -3.76 2.24 -6.24 s2.2 -5.16 3.32 -7.48 c1.36 -2.88 3.32 -6.56 5 -9.52 c0.44 -0.76 0.8 -1.44 1.16 -2.08 c0.4 -0.6 0.72 -1.16 1 -1.64 c0.56 -0.92 0.88 -1.48 0.88 -1.48 s0.88 -0.04 1.48 0.52 c0.56 0.52 0.6 0.76 1.08 1 s0.68 0.52 0.68 0.52 l-0.48 0.72 l0.44 0.08 c0.08 -0.08 0.16 -0.16 0.2 -0.24 c0 0 0.84 0.4 1.4 1.04 c0 0 -0.04 0.04 -0.12 0.16 c0.08 0.2 0.12 0.4 0.12 0.64 c-0.08 0.56 -0.12 1.32 -0.16 2.24 c0 0.88 0 1.92 0.04 3.04 s0.08 2.32 0.12 3.52 c0 1.24 -0.04 2.48 -0.08 3.64 c-0.08 1.44 -0.24 3.08 -0.4 4.68 c-0.2 1.6 -0.4 3.2 -0.52 4.6 s-0.16 2.6 -0.2 3.44 l0 1 l0 0.36 s-0.16 0.08 -0.44 0.2 c-0.28 0.08 -0.68 0.16 -1.04 0.08 c-0.8 -0.12 -0.96 -0.24 -1.48 -0.2 s-0.84 -0.04 -0.84 -0.04 c0.04 -1.44 0.2 -2.88 0.4 -4.28 l-0.32 0 c-0.2 1.28 -0.4 2.6 -0.52 3.92 c0 0 -0.24 0.04 -0.56 0 c-0.36 0 -0.76 0 -1.16 -0.12 c0 0 0 -0.8 0.12 -2 c0.12 -1.24 0.36 -2.88 0.64 -4.64 c0.12 -0.76 0.24 -1.52 0.4 -2.28 c-0.72 0 -1.36 0 -1.84 0.04 z M30.784 20.52 c-0.6 1.04 -1.2 2.08 -1.76 3.12 c-0.28 0.48 -0.56 1 -0.84 1.48 c0.24 0 0.44 -0.04 0.64 -0.08 c0.56 -0.04 1.2 -0.12 1.88 -0.2 c0.04 -0.72 0.08 -1.36 0.08 -1.96 c0.04 -0.72 0.04 -1.52 0 -2.36 z M47.248000000000005 39.88 c-1 0.16 -2.08 0.2 -3.16 -0.04 c-1.12 -0.24 -2.16 -0.8 -2.96 -1.48 c-0.8 -0.64 -1.36 -1.4 -1.76 -2.12 s-0.68 -1.36 -0.88 -1.96 c-0.36 -1.2 -0.48 -2.12 -0.56 -2.8 c0 -0.32 -0.04 -0.56 -0.04 -0.72 l0 -0.28 s0.04 -0.04 0.12 -0.16 c0.08 -0.08 0.2 -0.2 0.36 -0.32 c0.28 -0.24 0.64 -0.4 1.04 -0.24 c0.76 0.32 0.92 0.6 1.44 0.48 c0.28 -0.04 0.48 0 0.64 0.04 c0.12 0.04 0.2 0.08 0.2 0.08 c0 0.64 0.04 1.32 0.16 1.92 c0.12 0.64 0.28 1.28 0.56 1.84 c0.24 0.56 0.6 1.04 1.04 1.44 s0.96 0.68 1.52 0.8 l0.04 -0.28 c-0.48 -0.12 -0.92 -0.36 -1.28 -0.68 s-0.64 -0.76 -0.88 -1.24 c-0.24 -0.44 -0.4 -1 -0.52 -1.52 c-0.12 -0.56 -0.16 -1.12 -0.16 -1.72 c0 0 0.24 -0.04 0.56 -0.04 c0.32 -0.04 0.76 0 1.16 0.08 c0 0 0.04 0.08 0.04 0.2 s0 0.32 0.04 0.52 c0.04 0.24 0.08 0.52 0.16 0.8 s0.2 0.6 0.32 0.84 c0.16 0.28 0.32 0.52 0.48 0.64 s0.32 0.24 0.6 0.28 c0.28 0.08 0.72 0.08 1.24 -0.04 c0.56 -0.12 1.16 -0.32 1.84 -0.64 c0.32 -0.12 0.68 -0.32 0.96 -0.44 c0.12 -0.12 0.24 -0.2 0.36 -0.28 s0.24 -0.16 0.28 -0.16 c0.08 -0.04 0.12 -0.12 0.12 -0.2 c0 -0.04 0 -0.08 -0.04 -0.12 c0.04 0.04 -0.16 -0.28 -0.4 -0.52 c-0.44 -0.48 -1.08 -1.04 -1.72 -1.56 c-0.72 -0.56 -1.4 -1.12 -2.04 -1.64 c-0.36 -0.32 -0.72 -0.6 -1.08 -0.92 c-0.36 -0.36 -0.72 -0.72 -1.12 -1.16 c-0.08 -0.12 -0.2 -0.24 -0.28 -0.36 s-0.2 -0.32 -0.28 -0.44 c-0.12 -0.24 -0.28 -0.44 -0.36 -0.68 c-0.12 -0.28 -0.24 -0.48 -0.36 -0.76 l-0.12 -0.36 s-0.08 -0.24 -0.12 -0.4 c-0.28 -1 -0.36 -2 -0.28 -2.88 c0.08 -1.2 0.4 -2.36 0.84 -3.44 c0.24 -0.52 0.48 -1 0.76 -1.48 s0.6 -0.96 0.92 -1.4 c0.36 -0.44 0.68 -0.84 1.04 -1.24 s0.72 -0.8 1.12 -1.16 l1.2 -1.08 c0.2 -0.16 0.44 -0.32 0.64 -0.48 c0.12 -0.08 0.24 -0.16 0.32 -0.24 l0.12 -0.08 l0.04 0 l0.04 -0.04 l0.24 -0.16 c0.16 -0.12 0.32 -0.2 0.48 -0.28 c0.08 -0.08 0.2 -0.12 0.28 -0.16 l0.28 -0.12 c0.2 -0.12 0.36 -0.2 0.56 -0.28 s0.4 -0.12 0.6 -0.2 c0.76 -0.24 1.52 -0.36 2.24 -0.28 s1.4 0.32 2 0.68 c0.6 0.4 1.08 0.88 1.44 1.44 c0.32 0.6 0.56 1.24 0.68 1.88 c0.16 0.64 0.16 1.32 0.16 1.96 c-0.04 0.32 -0.04 0.64 -0.12 0.92 c0 0.16 -0.04 0.32 -0.08 0.44 c0 0.12 -0.04 0.2 -0.08 0.32 c-0.08 0.44 -0.2 0.8 -0.36 1.16 c-0.36 1.08 -1.08 1.88 -1.76 2.32 c-0.36 0.2 -0.68 0.32 -0.96 0.32 s-0.48 -0.04 -0.6 -0.2 l-1.44 -1.68 c-0.16 -0.16 -0.24 -0.36 -0.28 -0.56 c-0.04 -0.16 -0.08 -0.4 -0.04 -0.6 c0 -0.4 0.08 -0.88 0.28 -1.36 c0.08 -0.2 0.16 -0.44 0.2 -0.68 c0.04 -0.16 0.04 -0.16 0.04 -0.2 l0 -0.12 c0 -0.12 0 -0.32 -0.12 -0.44 c-0.04 -0.08 -0.12 -0.08 -0.24 -0.08 c-0.08 0 -0.16 0 -0.24 0.04 c-0.04 0.04 -0.08 0.04 -0.12 0.08 c-0.04 0 -0.08 0.04 -0.12 0.04 l-0.04 0.04 l-0.04 0.04 l-0.04 0 l0 0.04 c-0.2 0.12 -0.36 0.24 -0.56 0.4 s-0.36 0.28 -0.56 0.44 c-0.72 0.64 -1.44 1.4 -2 2.16 c-0.6 0.8 -1.08 1.64 -1.32 2.4 c-0.28 0.8 -0.32 1.52 -0.16 2.16 c0.04 0.28 0.16 0.6 0.32 0.88 c0.04 0.08 0.12 0.16 0.16 0.24 l0 0.04 l0.04 0 l0.04 0.08 c0.08 0.08 0.2 0.24 0.32 0.36 c0.36 0.36 0.84 0.76 1.4 1.16 c0.56 0.48 1.16 0.92 1.76 1.4 c0.64 0.48 1.32 1 2 1.68 c0.36 0.32 0.68 0.68 1.04 1.12 c0.08 0.08 0.2 0.24 0.28 0.36 c0.12 0.12 0.2 0.32 0.32 0.48 c0.2 0.32 0.36 0.64 0.52 1 c0.12 0.32 0.24 0.72 0.32 1.08 c0.04 0.36 0.08 0.72 0.04 1.12 c-0.04 0.72 -0.24 1.48 -0.6 2.12 c-0.36 0.68 -0.84 1.24 -1.44 1.76 c-0.28 0.24 -0.48 0.4 -0.72 0.56 c-0.08 0.08 -0.2 0.16 -0.32 0.24 s-0.2 0.12 -0.32 0.2 c-0.2 0.12 -0.44 0.24 -0.64 0.36 s-0.4 0.24 -0.6 0.32 c-0.2 0.12 -0.4 0.2 -0.6 0.32 c-0.2 0.08 -0.44 0.2 -0.64 0.28 c-0.88 0.36 -1.8 0.64 -2.8 0.8 z M67.552 39.92 c-0.28 0.08 -0.68 0.12 -1.04 0.04 c-0.76 -0.2 -0.96 -0.36 -1.48 -0.36 c-0.52 0.04 -0.84 -0.12 -0.84 -0.12 c0.16 -1.44 0.36 -2.88 0.6 -4.28 l-0.28 -0.04 c-0.08 0.32 -0.12 0.64 -0.2 0.96 l-0.2 1 c-0.12 0.68 -0.2 1.36 -0.32 2 c0 0 -0.92 0.04 -1.72 -0.24 c0 0 0.04 -0.2 0.08 -0.52 c0 -0.2 0.04 -0.4 0.04 -0.64 c0.04 -0.24 0.08 -0.52 0.12 -0.84 c0.08 -0.28 0.12 -0.64 0.16 -1 s0.12 -0.72 0.2 -1.12 c0.12 -0.8 0.28 -1.68 0.48 -2.56 c0.36 -1.84 0.76 -3.76 1.2 -5.56 s0.84 -3.48 1.12 -4.72 c0.36 -1.72 0.8 -3.64 1.12 -5.44 c0.16 -0.68 0.28 -1.36 0.4 -1.96 c-2.04 -0.04 -4.32 0 -5.6 0 c-0.52 0 -0.96 -0.68 -0.96 -1.52 l0.04 -2.28 c0 -0.8 0.44 -1.48 0.96 -1.48 c1.72 0 5.48 -0.04 8.4 -0.04 c1.84 0 4.24 -0.04 6.2 -0.04 l3.48 0 s0.24 0.8 0.12 1.56 c-0.12 0.8 -0.24 1 -0.24 1.52 c0.04 0.52 -0.08 0.84 -0.08 0.84 l-2.76 -0.24 l0 0.28 c0.84 0.12 1.68 0.28 2.52 0.4 c0 0 0.04 1 -0.12 1.8 c0 0 -1.88 -0.2 -4.2 -0.4 c-0.84 -0.08 -1.72 -0.12 -2.6 -0.2 c-0.2 1.12 -0.44 2.44 -0.72 3.84 c-0.44 2.32 -1 4.84 -1.44 7.04 c-0.56 2.68 -1.2 6.24 -1.56 9.12 c-0.08 0.72 -0.16 1.36 -0.2 2 c-0.04 0.6 -0.08 1.12 -0.12 1.6 c-0.08 0.88 -0.08 1.44 -0.08 1.44 s-0.2 0.08 -0.48 0.16 z M93.76 31.84 c0.36 -1.84 0.76 -3.8 1.2 -5.68 c0.4 -1.84 0.8 -3.56 1.08 -4.84 c0.76 -3.48 1.64 -7.96 1.96 -10.24 c0.12 -0.84 0.88 -1.4 1.68 -1.28 l1.28 0.2 c0.68 -0.16 1.56 -0.28 2.52 -0.36 c1.2 -0.12 2.48 -0.16 3.6 -0.2 c1.32 0 3.08 -0.04 4.48 -0.08 c0.36 0 0.68 0 0.96 -0.04 c0.32 0 0.56 0 0.76 -0.04 c0.44 0 0.68 -0.04 0.68 -0.04 s0.24 0.76 0.16 1.52 c-0.04 0.8 -0.12 1 -0.08 1.52 c0 0.52 -0.04 0.84 -0.04 0.84 c-0.68 -0.04 -1.36 -0.08 -2.04 -0.16 l0 0.28 c0.6 0.12 1.24 0.24 1.88 0.32 c0 0 0.04 0.96 -0.08 1.76 l-0.24 0 c-0.16 -0.04 -0.4 -0.04 -0.68 -0.08 c-0.6 -0.04 -1.36 -0.12 -2.2 -0.2 c-1.72 -0.16 -3.64 -0.32 -4.8 -0.32 c-0.8 0 -1.64 0.04 -2.44 0.16 c-0.32 0 -0.6 0.04 -0.84 0.08 c-0.16 0.88 -0.36 1.84 -0.52 2.84 c-0.28 1.4 -0.6 2.84 -0.88 4.32 c0.24 0 0.52 0 0.76 -0.04 c0.92 0 1.92 -0.04 2.84 -0.08 c1.08 -0.08 2.56 -0.2 3.76 -0.32 c1.24 -0.12 2.2 -0.2 2.2 -0.2 s0.16 0.76 0.12 1.52 c-0.04 0.8 -0.12 1 -0.08 1.52 c0 0.52 -0.04 0.84 -0.04 0.84 c-0.56 -0.04 -1.12 -0.08 -1.72 -0.12 l0 0.32 c0.56 0.08 1.08 0.16 1.6 0.24 c0 0 0.04 0.96 -0.04 1.76 c0 0 -1.12 -0.08 -2.56 -0.16 s-3.16 -0.12 -4.24 -0.12 c-1.12 0 -2.56 0.04 -3.6 0 c-0.4 2.32 -0.84 4.92 -1.08 7.12 c-0.08 0.72 -0.16 1.4 -0.24 2.04 c-0.04 0.6 -0.08 1.16 -0.12 1.64 c-0.08 0.92 -0.08 1.48 -0.08 1.48 s-0.2 0.08 -0.48 0.16 c-0.32 0.08 -0.68 0.16 -1.08 0.04 c-0.76 -0.16 -0.92 -0.32 -1.44 -0.32 s-0.84 -0.12 -0.84 -0.12 c0.12 -0.76 0.16 -1.48 0.28 -2.2 l0.16 -1.12 l0.16 -1.12 l-0.28 0 l-0.2 1 l-0.2 1 c-0.04 0.36 -0.12 0.68 -0.16 1.04 l-0.16 1.04 s-0.96 0 -1.72 -0.28 c0 0 0.04 -0.2 0.08 -0.52 c0 -0.2 0.04 -0.4 0.04 -0.64 l0.12 -0.84 c0.08 -0.32 0.12 -0.68 0.16 -1.04 c0.08 -0.36 0.12 -0.76 0.2 -1.16 c0.12 -0.8 0.28 -1.68 0.48 -2.64 z M131.66400000000002 30.68 l-0.12 0.44 c-0.36 1.08 -0.8 2.12 -1.32 3.16 c-0.52 1 -1.08 2 -1.88 2.96 c-0.36 0.44 -0.8 0.92 -1.32 1.32 c-0.48 0.44 -1.08 0.84 -1.76 1.12 c-0.2 0.08 -0.36 0.12 -0.56 0.2 c-0.08 0 -0.16 0.04 -0.24 0.04 c-0.08 0.04 -0.16 0.04 -0.24 0.08 c-0.16 0.04 -0.36 0.08 -0.52 0.08 c-0.16 0.04 -0.36 0.04 -0.52 0.08 c-0.68 0.04 -1.4 -0.04 -2 -0.2 c-0.88 -0.2 -1.64 -0.6 -2.28 -1.08 s-1.2 -1 -1.64 -1.56 c-0.92 -1.16 -1.52 -2.4 -1.92 -3.68 c-0.04 -0.16 -0.08 -0.32 -0.16 -0.48 c-0.04 -0.16 -0.08 -0.4 -0.12 -0.52 c-0.04 -0.32 -0.12 -0.64 -0.16 -0.92 c-0.12 -0.6 -0.2 -1.2 -0.24 -1.76 c-0.16 -1.2 -0.2 -2.36 -0.2 -3.56 c0 -1.16 0.12 -2.32 0.28 -3.48 c0.08 -0.28 0.12 -0.56 0.16 -0.8 c0.04 -0.12 0.08 -0.28 0.08 -0.4 c0.04 -0.12 0.04 -0.2 0.08 -0.32 l0.12 -0.72 s0.12 -0.48 0.16 -0.72 c0.2 -0.96 0.48 -1.96 0.84 -2.88 c0.36 -0.88 0.72 -1.64 1.08 -2.28 c0.28 -0.56 0.64 -1.08 1 -1.44 c-0.12 -0.16 -0.28 -0.28 -0.36 -0.52 c0 0 0.04 -0.12 0.2 -0.36 c0.04 -0.12 0.16 -0.24 0.24 -0.44 c0.12 -0.16 0.28 -0.36 0.44 -0.6 c0.36 -0.44 0.84 -1.04 1.56 -1.6 c0.4 -0.28 0.84 -0.52 1.32 -0.76 c0.24 -0.08 0.48 -0.2 0.76 -0.28 c0.16 -0.04 0.28 -0.08 0.4 -0.12 c0.16 -0.04 0.28 -0.04 0.44 -0.08 c0.12 -0.04 0.28 -0.04 0.4 -0.08 c0.16 0 0.28 -0.04 0.44 -0.04 c0.12 0 0.28 -0.04 0.4 -0.04 l0.44 0 c0.28 0 0.52 0.04 0.8 0.04 c0.12 0.04 0.24 0.04 0.4 0.08 c0.12 0 0.24 0 0.4 0.04 c0.56 0.08 1.16 0.24 1.84 0.52 s1.36 0.68 1.96 1.24 s1.08 1.2 1.4 1.84 c0.36 0.64 0.56 1.28 0.72 1.84 c0.32 1.04 0.56 2.16 0.76 3.28 c0.32 2.32 0.32 4.72 0 7.08 c-0.2 1.16 -0.4 2.32 -0.72 3.44 c-0.12 0.6 -0.28 1.12 -0.44 1.68 c-0.08 0.28 -0.16 0.52 -0.28 0.8 z M127.90400000000001 22.12 c0.04 -0.84 0.04 -1.68 -0.04 -2.48 s-0.2 -1.6 -0.36 -2.36 c-0.04 -0.16 -0.08 -0.36 -0.12 -0.56 c-0.08 -0.16 -0.12 -0.36 -0.16 -0.56 c-0.08 -0.16 -0.12 -0.36 -0.2 -0.52 c0 -0.08 0 -0.08 -0.04 -0.12 l0 -0.12 c-0.04 -0.08 -0.08 -0.16 -0.08 -0.2 c-0.12 -0.24 -0.2 -0.44 -0.32 -0.56 c-0.08 -0.08 -0.12 -0.16 -0.2 -0.2 c-0.04 -0.04 -0.12 -0.08 -0.28 -0.12 c-0.12 -0.04 -0.32 -0.08 -0.56 -0.12 l-0.36 0 c-0.04 0 -0.12 0 -0.16 -0.04 c-0.08 0 -0.08 0.04 -0.16 0.04 l-0.12 0 l-0.12 0 l-0.08 0 s-0.08 0.04 -0.08 0.04 c-0.24 0.04 -0.36 0.12 -0.48 0.2 c-0.12 0.12 -0.28 0.24 -0.4 0.4 c-0.12 0.2 -0.2 0.4 -0.28 0.56 c-0.12 0.16 -0.16 0.32 -0.2 0.44 c-0.04 0.04 -0.04 0.08 -0.08 0.12 l0 0.04 s-0.04 0.04 -0.16 0.08 s-0.24 0.08 -0.4 0.12 c-0.08 0.04 -0.16 0.04 -0.24 0.04 c-0.12 0.28 -0.24 0.56 -0.4 0.84 l-0.24 0.48 s-0.16 0.36 -0.24 0.52 c-0.16 0.32 -0.32 0.68 -0.48 1.08 c-0.12 0.36 -0.24 0.76 -0.36 1.2 c-0.08 0.44 -0.2 0.92 -0.32 1.44 c-0.04 0.32 -0.08 0.6 -0.16 0.88 l-0.04 0.2 l-0.04 0.2 c-0.04 0.16 -0.04 0.28 -0.08 0.4 c-0.08 0.52 -0.16 1.04 -0.2 1.6 c-0.08 1.08 -0.08 2.28 0 3.48 c0.04 0.6 0.12 1.2 0.24 1.8 c0 0.16 0.04 0.32 0.04 0.48 c0.04 0.16 0.08 0.32 0.08 0.44 l0.08 0.2 l0 0.12 c0 0.04 0 0.08 0.04 0.08 c0 0.12 0.04 0.24 0.08 0.36 c0.16 0.52 0.36 1 0.6 1.44 c0.28 0.44 0.56 0.8 0.84 1.08 s0.56 0.44 0.76 0.48 c0.2 0.08 0.36 0.08 0.64 0 l0.04 0 c0 -0.04 0.04 -0.04 0.04 -0.04 l0.04 0 c0.04 -0.04 0.12 -0.08 0.16 -0.08 c0.12 -0.08 0.24 -0.2 0.4 -0.32 c0.28 -0.24 0.6 -0.64 0.88 -1.04 c0.68 -1.04 1.32 -2.44 1.8 -4 l0.12 -0.28 l0.08 -0.32 c0.08 -0.2 0.12 -0.4 0.2 -0.6 c0.12 -0.44 0.24 -0.84 0.32 -1.24 c0.2 -0.84 0.4 -1.68 0.52 -2.52 s0.2 -1.68 0.24 -2.48 z M128.66400000000002 11.760000000000002 l0.16 -0.28 c-0.4 -0.28 -0.84 -0.56 -1.28 -0.72 s-0.88 -0.28 -1.32 -0.36 c-0.2 -0.04 -0.4 -0.08 -0.64 -0.12 c-0.2 0 -0.4 -0.04 -0.64 -0.04 l-0.36 0 c-0.12 0 -0.24 0.04 -0.36 0.04 l-0.32 0 l-0.36 0.08 c-0.24 0.04 -0.48 0.12 -0.72 0.16 c-0.12 0.04 -0.24 0.12 -0.36 0.16 c-0.08 0.04 -0.2 0.08 -0.32 0.16 l-0.32 0.16 c-0.12 0.08 -0.2 0.12 -0.32 0.2 c-0.2 0.12 -0.36 0.32 -0.56 0.44 c-0.24 0.24 -0.48 0.48 -0.68 0.76 l0.04 0 l0.32 0.2 c0.04 -0.08 0.12 -0.12 0.16 -0.2 c0.6 -0.72 1.44 -1.32 2.4 -1.6 s1.96 -0.24 2.8 -0.12 c0.48 0.08 0.92 0.16 1.4 0.32 c0.44 0.2 0.88 0.44 1.28 0.76 z M152.96800000000002 30.68 l-0.12 0.44 c-0.36 1.08 -0.8 2.12 -1.32 3.16 c-0.52 1 -1.08 2 -1.88 2.96 c-0.36 0.44 -0.8 0.92 -1.32 1.32 c-0.48 0.44 -1.08 0.84 -1.76 1.12 c-0.2 0.08 -0.36 0.12 -0.56 0.2 c-0.08 0 -0.16 0.04 -0.24 0.04 c-0.08 0.04 -0.16 0.04 -0.24 0.08 c-0.16 0.04 -0.36 0.08 -0.52 0.08 c-0.16 0.04 -0.36 0.04 -0.52 0.08 c-0.68 0.04 -1.4 -0.04 -2 -0.2 c-0.88 -0.2 -1.64 -0.6 -2.28 -1.08 s-1.2 -1 -1.64 -1.56 c-0.92 -1.16 -1.52 -2.4 -1.92 -3.68 c-0.04 -0.16 -0.08 -0.32 -0.16 -0.48 c-0.04 -0.16 -0.08 -0.4 -0.12 -0.52 c-0.04 -0.32 -0.12 -0.64 -0.16 -0.92 c-0.12 -0.6 -0.2 -1.2 -0.24 -1.76 c-0.16 -1.2 -0.2 -2.36 -0.2 -3.56 c0 -1.16 0.12 -2.32 0.28 -3.48 c0.08 -0.28 0.12 -0.56 0.16 -0.8 c0.04 -0.12 0.08 -0.28 0.08 -0.4 c0.04 -0.12 0.04 -0.2 0.08 -0.32 l0.12 -0.72 s0.12 -0.48 0.16 -0.72 c0.2 -0.96 0.48 -1.96 0.84 -2.88 c0.36 -0.88 0.72 -1.64 1.08 -2.28 c0.28 -0.56 0.64 -1.08 1 -1.44 c-0.12 -0.16 -0.28 -0.28 -0.36 -0.52 c0 0 0.04 -0.12 0.2 -0.36 c0.04 -0.12 0.16 -0.24 0.24 -0.44 c0.12 -0.16 0.28 -0.36 0.44 -0.6 c0.36 -0.44 0.84 -1.04 1.56 -1.6 c0.4 -0.28 0.84 -0.52 1.32 -0.76 c0.24 -0.08 0.48 -0.2 0.76 -0.28 c0.16 -0.04 0.28 -0.08 0.4 -0.12 c0.16 -0.04 0.28 -0.04 0.44 -0.08 c0.12 -0.04 0.28 -0.04 0.4 -0.08 c0.16 0 0.28 -0.04 0.44 -0.04 c0.12 0 0.28 -0.04 0.4 -0.04 l0.44 0 c0.28 0 0.52 0.04 0.8 0.04 c0.12 0.04 0.24 0.04 0.4 0.08 c0.12 0 0.24 0 0.4 0.04 c0.56 0.08 1.16 0.24 1.84 0.52 s1.36 0.68 1.96 1.24 s1.08 1.2 1.4 1.84 c0.36 0.64 0.56 1.28 0.72 1.84 c0.32 1.04 0.56 2.16 0.76 3.28 c0.32 2.32 0.32 4.72 0 7.08 c-0.2 1.16 -0.4 2.32 -0.72 3.44 c-0.12 0.6 -0.28 1.12 -0.44 1.68 c-0.08 0.28 -0.16 0.52 -0.28 0.8 z M149.20800000000003 22.12 c0.04 -0.84 0.04 -1.68 -0.04 -2.48 s-0.2 -1.6 -0.36 -2.36 c-0.04 -0.16 -0.08 -0.36 -0.12 -0.56 c-0.08 -0.16 -0.12 -0.36 -0.16 -0.56 c-0.08 -0.16 -0.12 -0.36 -0.2 -0.52 c0 -0.08 0 -0.08 -0.04 -0.12 l0 -0.12 c-0.04 -0.08 -0.08 -0.16 -0.08 -0.2 c-0.12 -0.24 -0.2 -0.44 -0.32 -0.56 c-0.08 -0.08 -0.12 -0.16 -0.2 -0.2 c-0.04 -0.04 -0.12 -0.08 -0.28 -0.12 c-0.12 -0.04 -0.32 -0.08 -0.56 -0.12 l-0.36 0 c-0.04 0 -0.12 0 -0.16 -0.04 c-0.08 0 -0.08 0.04 -0.16 0.04 l-0.12 0 l-0.12 0 l-0.08 0 s-0.08 0.04 -0.08 0.04 c-0.24 0.04 -0.36 0.12 -0.48 0.2 c-0.12 0.12 -0.28 0.24 -0.4 0.4 c-0.12 0.2 -0.2 0.4 -0.28 0.56 c-0.12 0.16 -0.16 0.32 -0.2 0.44 c-0.04 0.04 -0.04 0.08 -0.08 0.12 l0 0.04 s-0.04 0.04 -0.16 0.08 s-0.24 0.08 -0.4 0.12 c-0.08 0.04 -0.16 0.04 -0.24 0.04 c-0.12 0.28 -0.24 0.56 -0.4 0.84 l-0.24 0.48 s-0.16 0.36 -0.24 0.52 c-0.16 0.32 -0.32 0.68 -0.48 1.08 c-0.12 0.36 -0.24 0.76 -0.36 1.2 c-0.08 0.44 -0.2 0.92 -0.32 1.44 c-0.04 0.32 -0.08 0.6 -0.16 0.88 l-0.04 0.2 l-0.04 0.2 c-0.04 0.16 -0.04 0.28 -0.08 0.4 c-0.08 0.52 -0.16 1.04 -0.2 1.6 c-0.08 1.08 -0.08 2.28 0 3.48 c0.04 0.6 0.12 1.2 0.24 1.8 c0 0.16 0.04 0.32 0.04 0.48 c0.04 0.16 0.08 0.32 0.08 0.44 l0.08 0.2 l0 0.12 c0 0.04 0 0.08 0.04 0.08 c0 0.12 0.04 0.24 0.08 0.36 c0.16 0.52 0.36 1 0.6 1.44 c0.28 0.44 0.56 0.8 0.84 1.08 s0.56 0.44 0.76 0.48 c0.2 0.08 0.36 0.08 0.64 0 l0.04 0 c0 -0.04 0.04 -0.04 0.04 -0.04 l0.04 0 c0.04 -0.04 0.12 -0.08 0.16 -0.08 c0.12 -0.08 0.24 -0.2 0.4 -0.32 c0.28 -0.24 0.6 -0.64 0.88 -1.04 c0.68 -1.04 1.32 -2.44 1.8 -4 l0.12 -0.28 l0.08 -0.32 c0.08 -0.2 0.12 -0.4 0.2 -0.6 c0.12 -0.44 0.24 -0.84 0.32 -1.24 c0.2 -0.84 0.4 -1.68 0.52 -2.52 s0.2 -1.68 0.24 -2.48 z M149.96800000000002 11.760000000000002 l0.16 -0.28 c-0.4 -0.28 -0.84 -0.56 -1.28 -0.72 s-0.88 -0.28 -1.32 -0.36 c-0.2 -0.04 -0.4 -0.08 -0.64 -0.12 c-0.2 0 -0.4 -0.04 -0.64 -0.04 l-0.36 0 c-0.12 0 -0.24 0.04 -0.36 0.04 l-0.32 0 l-0.36 0.08 c-0.24 0.04 -0.48 0.12 -0.72 0.16 c-0.12 0.04 -0.24 0.12 -0.36 0.16 c-0.08 0.04 -0.2 0.08 -0.32 0.16 l-0.32 0.16 c-0.12 0.08 -0.2 0.12 -0.32 0.2 c-0.2 0.12 -0.36 0.32 -0.56 0.44 c-0.24 0.24 -0.48 0.48 -0.68 0.76 l0.04 0 l0.32 0.2 c0.04 -0.08 0.12 -0.12 0.16 -0.2 c0.6 -0.72 1.44 -1.32 2.4 -1.6 s1.96 -0.24 2.8 -0.12 c0.48 0.08 0.92 0.16 1.4 0.32 c0.44 0.2 0.88 0.44 1.28 0.76 z M176.11200000000002 13.760000000000002 c0.32 1.2 0.36 2.36 0.32 3.44 c-0.04 0.52 -0.08 1.04 -0.16 1.52 l-0.12 0.72 l-0.08 0.36 c0 0.12 -0.04 0.28 -0.08 0.4 c-0.08 0.48 -0.2 0.92 -0.32 1.4 c-0.12 0.44 -0.28 0.88 -0.4 1.32 c-0.32 1.04 -0.76 2.12 -1.2 3.24 l-0.72 1.68 c-0.16 0.28 -0.28 0.56 -0.4 0.84 s-0.28 0.56 -0.4 0.84 l-0.48 0.96 c-0.2 0.28 -0.36 0.56 -0.52 0.84 c-0.32 0.56 -0.68 1.08 -1.04 1.64 c-0.72 1.08 -1.52 2.08 -2.4 3 c-0.84 0.92 -1.76 1.76 -2.76 2.44 c-0.48 0.32 -1 0.64 -1.52 0.88 c-0.16 0.04 -0.28 0.12 -0.4 0.16 c-0.08 0.04 -0.16 0.04 -0.2 0.08 l-0.12 0.04 c-0.04 0.04 -0.08 0.04 -0.12 0.04 c-0.08 0.04 -0.16 0.08 -0.24 0.08 c-0.08 0.04 -0.16 0.04 -0.24 0.08 c-0.16 0.04 -0.28 0.08 -0.4 0.08 c-0.52 0.12 -0.92 0.16 -1.24 0.2 c-0.28 0.04 -0.52 0.04 -0.72 0.08 c-0.16 0 -0.24 0 -0.32 0.04 l-0.08 0 s-0.04 -0.04 -0.08 -0.12 c-0.08 -0.08 -0.12 -0.16 -0.2 -0.32 c-0.04 -0.16 -0.16 -0.32 -0.2 -0.52 c-0.2 -0.08 -0.36 -0.12 -0.64 -0.08 c-0.52 0 -0.84 -0.12 -0.84 -0.12 c0.16 -1.44 0.36 -2.84 0.6 -4.2 l-0.28 -0.04 c-0.08 0.32 -0.16 0.64 -0.2 0.96 l-0.2 0.96 c-0.12 0.64 -0.2 1.28 -0.32 1.96 c0 0 -0.96 0 -1.72 -0.24 c0 0 0.04 -0.2 0.08 -0.56 c0 -0.16 0.04 -0.36 0.04 -0.6 c0.04 -0.24 0.08 -0.48 0.12 -0.8 l0.08 -0.52 c0.04 -0.16 0.04 -0.28 0.08 -0.44 c0.04 -0.36 0.12 -0.72 0.2 -1.12 c0.12 -0.76 0.28 -1.6 0.44 -2.48 c0.36 -1.76 0.8 -3.68 1.24 -5.44 c0.44 -1.72 0.84 -3.36 1.12 -4.6 c0.36 -1.64 0.8 -3.52 1.12 -5.28 c0.2 -0.84 0.32 -1.68 0.48 -2.44 c0.12 -0.76 0.24 -1.4 0.32 -1.96 c0.12 -0.76 0.88 -1.32 1.68 -1.2 l0.56 0.08 l0 0 c0.52 -0.28 1.08 -0.6 1.72 -0.88 c0.68 -0.28 1.4 -0.56 2.2 -0.76 c0.4 -0.12 0.84 -0.24 1.32 -0.32 s0.96 -0.16 1.56 -0.16 l0.44 0 s0.32 0.04 0.52 0.04 c0.2 0.04 0.36 0.08 0.56 0.12 l0.28 0.08 c0.08 0 0.16 0.04 0.28 0.08 c0.2 0.08 0.32 0.12 0.48 0.2 s0.28 0.16 0.44 0.24 s0.32 0.16 0.44 0.28 c0.16 0.08 0.28 0.2 0.44 0.28 c0.56 0.48 1.04 1.04 1.44 1.64 c0.36 0.6 0.6 1.24 0.76 1.88 z M162.07200000000003 36 c0.88 -0.32 1.68 -0.84 2.44 -1.48 l-0.2 -0.2 c-0.68 0.52 -1.44 1 -2.2 1.28 l-0.24 0.08 c0 0.12 0 0.28 -0.04 0.4 c0.08 -0.04 0.16 -0.04 0.24 -0.08 z M171.27200000000002 16.44 c0 -0.48 -0.04 -0.96 -0.12 -1.36 c-0.08 -0.36 -0.24 -0.6 -0.36 -0.72 c-0.04 -0.08 -0.12 -0.12 -0.2 -0.16 c-0.04 -0.04 -0.08 -0.04 -0.08 -0.04 c-0.04 -0.04 -0.08 -0.04 -0.08 -0.04 l-0.04 -0.04 l-0.04 0 l0 0 l0 0 l-0.08 0 c-0.04 -0.04 -0.12 -0.04 -0.2 -0.04 c-0.16 0 -0.36 0.04 -0.6 0.08 c-0.44 0.08 -0.92 0.2 -1.36 0.36 c-0.92 0.28 -1.72 0.68 -2.28 1 c-0.08 0.04 -0.16 0.08 -0.2 0.08 c-0.16 0.96 -0.36 1.96 -0.6 3.04 c-0.44 2.24 -1 4.72 -1.44 6.84 c-0.52 2.4 -1.08 5.48 -1.44 8.12 c0.32 -0.2 0.68 -0.48 1.04 -0.76 c0.72 -0.6 1.44 -1.4 2.16 -2.28 c0.4 -0.48 0.76 -0.96 1.08 -1.44 c0.2 -0.28 0.36 -0.52 0.52 -0.8 c0.16 -0.24 0.36 -0.52 0.48 -0.76 l0.24 -0.36 l0.2 -0.4 c0.16 -0.32 0.28 -0.6 0.44 -0.92 c0.28 -0.56 0.56 -1.16 0.84 -1.72 c1.04 -2.32 1.76 -4.48 1.96 -6.08 c0.08 -0.52 0.16 -1.08 0.16 -1.6 z"/></g><g id="SvgjsG6419" featurekey="sloganFeature-0" transform="matrix(1.6597893496801823,0,0,1.6597893496801823,31.60759174615229,231.016322034996)" fill="url(#SvgjsLinearGradient6429)"><path d="M6.06 16.96 l2.4 -6.36 l-0.6 -2.34 c-0.26 -0.96 1.08 -1.2 1.3 -0.36 l2.36 8.68 l2.54 -8.68 c0.26 -0.9 1.58 -0.52 1.32 0.34 l-3.1 10.54 c-0.12 0.38 -0.46 0.62 -0.78 0.62 c-0.36 0 -0.68 -0.22 -0.8 -0.62 l-1.64 -6.02 c-0.76 2 -1.56 4.04 -2.3 6.04 c-0.14 0.36 -0.46 0.6 -0.76 0.6 s-0.6 -0.2 -0.74 -0.64 l-3.18 -10.52 c-0.26 -0.86 0.96 -1.14 1.22 -0.38 z M19.98 18.7 l0 -10.64 c0 -0.46 0.36 -0.7 0.7 -0.7 l4.6 0 c0.44 0 0.66 0.32 0.66 0.66 s-0.22 0.68 -0.66 0.68 l-3.96 0 l0 3.88 l3.14 0 c0.46 0 0.68 0.32 0.68 0.66 s-0.24 0.7 -0.68 0.7 l-3.14 0 l0 4.14 l3.96 0 c0.42 0 0.64 0.34 0.64 0.66 c0 0.34 -0.22 0.66 -0.64 0.66 l-4.6 0 c-0.34 0 -0.7 -0.12 -0.7 -0.7 z M41.660000000000004 7.32 c1.82 0 3.76 0.7 3.76 2.76 c0 0.48 -0.32 0.7 -0.66 0.7 s-0.7 -0.24 -0.7 -0.7 c0 -0.16 -0.1 -1.46 -2.4 -1.46 c-1.82 0 -2.62 0.72 -2.62 2.44 l0 4.82 c0 1.74 0.98 2.28 2.62 2.28 c1.66 0 2.58 -0.68 2.58 -2.3 c0 -0.46 0.34 -0.68 0.66 -0.68 c0.34 0 0.66 0.22 0.66 0.68 c0 2.7 -1.5 3.6 -3.9 3.6 c-2.6 0 -3.92 -0.96 -3.92 -3.58 l0 -4.82 c0 -2.84 1.42 -3.74 3.92 -3.74 z M50.10000000000001 15.86 l0 -4.96 c0 -2.4 1.24 -3.68 3.64 -3.68 l0.52 0 c2.38 0 3.64 1.28 3.64 3.68 l0 4.96 c0 2.2 -1.46 3.64 -3.64 3.64 l-0.52 0 c-2.22 0 -3.64 -1.46 -3.64 -3.64 z M53.74000000000001 18.16 l0.52 0 c1.44 0 2.3 -0.9 2.3 -2.3 l0 -4.96 c0 -1.56 -0.76 -2.36 -2.3 -2.36 l-0.52 0 c-1.52 0 -2.36 0.82 -2.36 2.36 l0 4.96 c0 1.46 0.92 2.3 2.36 2.3 z M62.5 15.86 l0 -4.96 c0 -2.4 1.24 -3.68 3.64 -3.68 l0.52 0 c2.38 0 3.64 1.28 3.64 3.68 l0 4.96 c0 2.2 -1.46 3.64 -3.64 3.64 l-0.52 0 c-2.22 0 -3.64 -1.46 -3.64 -3.64 z M66.14 18.16 l0.52 0 c1.44 0 2.3 -0.9 2.3 -2.3 l0 -4.96 c0 -1.56 -0.76 -2.36 -2.3 -2.36 l-0.52 0 c-1.52 0 -2.36 0.82 -2.36 2.36 l0 4.96 c0 1.46 0.92 2.3 2.36 2.3 z M75.10000000000001 18.76 l0 -10.76 c0 -0.42 0.32 -0.64 0.64 -0.64 s0.66 0.22 0.66 0.64 l0 4.84 l3.86 -5.18 c0.5 -0.68 1.64 -0.02 1.12 0.68 l-2.24 3.08 l2.74 7.1 c0.18 0.48 -0.18 0.88 -0.6 0.88 c-0.24 0 -0.52 -0.18 -0.66 -0.56 c-0.78 -2 -1.62 -4.08 -2.4 -6.12 l-1.82 2.36 l0 3.68 c0 0.42 -0.34 0.64 -0.66 0.64 s-0.64 -0.22 -0.64 -0.64 z M87.44000000000001 21 c-0.4 0.78 -1.34 0.32 -1.04 -0.4 c0.14 -0.34 0.44 -0.7 0.48 -1.2 c-0.7 0.1 -1 -0.54 -1 -1.04 c0 -0.56 0.46 -1.08 1.14 -1.08 c0.74 0 1.1 0.56 1.1 1.18 c0 0.84 -0.34 1.9 -0.68 2.54 z M105.4 8.3 l-2.48 5.14 l0 5.32 c0 0.44 -0.32 0.64 -0.64 0.64 c-0.34 0 -0.66 -0.22 -0.66 -0.64 l0 -5.32 l-2.54 -5.12 c-0.42 -0.88 0.8 -1.4 1.22 -0.56 l1.98 3.96 l1.9 -3.94 c0.44 -0.92 1.64 -0.34 1.22 0.52 z M109.72000000000001 15.86 l0 -4.96 c0 -2.4 1.24 -3.68 3.64 -3.68 l0.52 0 c2.38 0 3.64 1.28 3.64 3.68 l0 4.96 c0 2.2 -1.46 3.64 -3.64 3.64 l-0.52 0 c-2.22 0 -3.64 -1.46 -3.64 -3.64 z M113.36000000000001 18.16 l0.52 0 c1.44 0 2.3 -0.9 2.3 -2.3 l0 -4.96 c0 -1.56 -0.76 -2.36 -2.3 -2.36 l-0.52 0 c-1.52 0 -2.36 0.82 -2.36 2.36 l0 4.96 c0 1.46 0.92 2.3 2.36 2.3 z M122.22000000000001 15.86 l0 -7.86 c0 -0.42 0.34 -0.64 0.66 -0.64 c0.34 0 0.66 0.22 0.66 0.64 l0 7.86 c0 1.44 0.98 2.3 2.34 2.3 l0.5 0 c1.4 0 2.36 -0.98 2.36 -2.3 l0 -7.86 c0 -0.42 0.32 -0.64 0.66 -0.64 c0.32 0 0.66 0.22 0.66 0.64 l0 7.86 c0 2.06 -1.46 3.64 -3.68 3.64 l-0.5 0 c-2.22 0 -3.66 -1.54 -3.66 -3.64 z M142.36 18.7 l0 -10.64 c0 -0.46 0.36 -0.7 0.7 -0.7 l4.6 0 c0.44 0 0.66 0.32 0.66 0.66 s-0.22 0.68 -0.66 0.68 l-3.96 0 l0 3.88 l3.14 0 c0.46 0 0.68 0.32 0.68 0.66 s-0.24 0.7 -0.68 0.7 l-3.14 0 l0 4.14 l3.96 0 c0.42 0 0.64 0.34 0.64 0.66 c0 0.34 -0.22 0.66 -0.64 0.66 l-4.6 0 c-0.34 0 -0.7 -0.12 -0.7 -0.7 z M158.78000000000003 18.86 l-0.78 -2.54 l-3.72 0 l-0.74 2.5 c-0.26 0.86 -1.58 0.6 -1.3 -0.28 c1.04 -3.5 2.06 -7.06 3.08 -10.6 c0.12 -0.38 0.44 -0.58 0.76 -0.58 c0.3 0 0.62 0.2 0.74 0.58 l3.18 10.6 c0.22 0.76 -0.96 1.18 -1.22 0.32 z M156.12000000000003 10.06 l-1.44 4.92 l2.94 0 c-0.5 -1.68 -0.96 -3.12 -1.5 -4.92 z M164.08000000000004 7.359999999999999 l6.04 0 c0.42 0 0.62 0.34 0.62 0.68 s-0.2 0.66 -0.62 0.66 l-2.28 0 l0 10.06 c0 0.42 -0.34 0.64 -0.68 0.64 s-0.66 -0.22 -0.66 -0.64 l0 -10.06 l-2.42 0 c-0.42 0 -0.62 -0.32 -0.62 -0.66 s0.2 -0.68 0.62 -0.68 z"/></g></svg>